<svg width="267" height="89" viewBox="0 0 267 89" fill="none" xmlns="http://www.w3.org/2000/svg">
<rect x="1.1125" y="1.1125" width="264.775" height="86.775" rx="12.2375" fill="black"/>
<rect x="1.1125" y="1.1125" width="264.775" height="86.775" rx="12.2375" stroke="#A6A6A6" stroke-width="2.225"/>
<path d="M54.9673 46.1976C54.9943 44.1509 55.5512 42.144 56.5861 40.3638C57.621 38.5836 59.1004 37.0878 60.8865 36.0158C59.7518 34.4337 58.2549 33.1317 56.5147 32.2132C54.7745 31.2947 52.8389 30.785 50.8616 30.7246C46.6437 30.2924 42.5547 33.1887 40.4053 33.1887C38.2143 33.1887 34.9051 30.7676 31.3415 30.8391C29.0365 30.9118 26.7901 31.5662 24.8212 32.7385C22.8523 33.9109 21.228 35.5611 20.1065 37.5285C15.2489 45.7396 18.8723 57.8073 23.5256 64.4446C25.8537 67.6947 28.5747 71.3251 32.135 71.1963C35.619 71.0552 36.9202 69.0274 41.1257 69.0274C45.2921 69.0274 46.5129 71.1963 50.1455 71.1145C53.884 71.0552 56.2393 67.85 58.4859 64.5691C60.1587 62.2533 61.4459 59.6938 62.2998 56.9855C60.1278 56.0887 58.2744 54.5874 56.9704 52.6691C55.6665 50.7507 54.9698 48.5 54.9673 46.1976Z" fill="white"/>
<path d="M48.1058 26.3602C50.1442 23.9712 51.1484 20.9005 50.9052 17.8003C47.791 18.1196 44.9144 19.5727 42.8485 21.8701C41.8384 22.9924 41.0648 24.298 40.5719 25.7124C40.0789 27.1268 39.8764 28.6221 39.9758 30.113C41.5334 30.1287 43.0744 29.799 44.4826 29.149C45.8909 28.4989 47.1297 27.5454 48.1058 26.3602Z" fill="white"/>
<path d="M81.8596 18.1157H86.465C90.4446 18.1157 92.3806 20.4819 92.3806 24.7744C92.3806 29.0668 90.425 31.4624 86.465 31.4624H81.8596V18.1157ZM84.0792 19.9832V29.5948H86.2205C88.8605 29.5948 90.1023 28.001 90.1023 24.8037C90.1023 21.5868 88.8508 19.9832 86.2205 19.9832H84.0792ZM99.401 20.9512C102.1 20.9512 103.987 22.7015 103.987 25.6055V26.945C103.987 29.9468 102.1 31.6384 99.401 31.6384C96.6633 31.6384 94.7957 29.9664 94.7957 26.9548V25.6153C94.7957 22.7895 96.6926 20.9512 99.401 20.9512ZM99.4108 22.7015C97.8659 22.7015 96.9859 23.9921 96.9859 25.7228V26.8766C96.9859 28.6073 97.8073 29.8882 99.4108 29.8882C100.995 29.8882 101.806 28.6171 101.806 26.8766V25.7228C101.806 23.9921 100.956 22.7015 99.4108 22.7015ZM119.925 21.1272L117.206 31.4624H114.997L112.836 23.8357H112.777L110.655 31.4624H108.436L105.6 21.1272H107.937L109.599 29.0082H109.697L111.78 21.1272H113.823L115.965 29.0082H116.062L117.754 21.1272H119.925ZM122.076 31.4624V21.1272H124.207V22.985H124.315C124.579 22.1735 125.332 20.9708 127.424 20.9708C129.507 20.9708 130.905 22.1246 130.905 24.481V31.4624H128.735V25.1166C128.735 23.5424 127.913 22.8188 126.691 22.8188C125.087 22.8188 124.247 24.0508 124.247 25.7228V31.4624H122.076ZM134.191 31.4624V17.4117H136.361V31.4624H134.191ZM143.812 20.9512C146.511 20.9512 148.398 22.7015 148.398 25.6055V26.945C148.398 29.9468 146.511 31.6384 143.812 31.6384C141.074 31.6384 139.207 29.9664 139.207 26.9548V25.6153C139.207 22.7895 141.104 20.9512 143.812 20.9512ZM143.822 22.7015C142.277 22.7015 141.397 23.9921 141.397 25.7228V26.8766C141.397 28.6073 142.218 29.8882 143.822 29.8882C145.406 29.8882 146.217 28.6171 146.217 26.8766V25.7228C146.217 23.9921 145.367 22.7015 143.822 22.7015ZM154.02 31.6188C152.016 31.6188 150.637 30.3868 150.637 28.4606C150.637 26.6322 151.908 25.4001 154.294 25.4001H156.904V24.4321C156.904 23.249 156.152 22.6917 154.959 22.6917C153.785 22.6917 153.257 23.1806 153.091 23.865H151.028C151.155 22.1344 152.456 20.9708 155.027 20.9708C157.237 20.9708 159.065 21.8899 159.065 24.4615V31.4624H157.002V30.1228H156.904C156.445 30.9148 155.545 31.6188 154.02 31.6188ZM154.695 29.9371C155.927 29.9371 156.904 29.0962 156.904 27.9717V26.857H154.636C153.375 26.857 152.817 27.4926 152.817 28.3531C152.817 29.4286 153.717 29.9371 154.695 29.9371ZM165.753 20.9903C167.21 20.9903 168.325 21.6357 168.726 22.6819H168.833V17.4117H171.004V31.4624H168.892V29.8099H168.785C168.472 30.8562 167.23 31.5993 165.724 31.5993C163.348 31.5993 161.803 29.9077 161.803 27.1797V25.4099C161.803 22.6819 163.377 20.9903 165.753 20.9903ZM166.36 22.7699C164.913 22.7699 164.013 23.8455 164.013 25.7228V26.857C164.013 28.7442 164.922 29.8197 166.409 29.8197C167.875 29.8197 168.833 28.7539 168.833 26.9939V25.4295C168.833 23.8357 167.787 22.7699 166.36 22.7699ZM182.923 20.9512C185.622 20.9512 187.509 22.7015 187.509 25.6055V26.945C187.509 29.9468 185.622 31.6384 182.923 31.6384C180.185 31.6384 178.318 29.9664 178.318 26.9548V25.6153C178.318 22.7895 180.215 20.9512 182.923 20.9512ZM182.933 22.7015C181.388 22.7015 180.508 23.9921 180.508 25.7228V26.8766C180.508 28.6073 181.33 29.8882 182.933 29.8882C184.517 29.8882 185.329 28.6171 185.329 26.8766V25.7228C185.329 23.9921 184.478 22.7015 182.933 22.7015ZM190.306 31.4624V21.1272H192.437V22.985H192.545C192.809 22.1735 193.562 20.9708 195.654 20.9708C197.737 20.9708 199.135 22.1246 199.135 24.481V31.4624H196.964V25.1166C196.964 23.5424 196.143 22.8188 194.921 22.8188C193.317 22.8188 192.476 24.0508 192.476 25.7228V31.4624H190.306ZM207.534 21.1957V18.6143H209.656V21.1957H211.973V22.897H209.656V28.3824C209.656 29.5068 210.076 29.8197 211.24 29.8197C211.533 29.8197 211.924 29.8002 212.091 29.7806V31.4428C211.915 31.4722 211.191 31.5308 210.702 31.5308C208.189 31.5308 207.505 30.6313 207.505 28.5584V22.897H205.931V21.1957H207.534ZM214.711 31.4624V17.4117H216.872V22.985H216.979C217.204 22.2517 218.045 20.9708 220.118 20.9708C222.132 20.9708 223.57 22.1344 223.57 24.4908V31.4624H221.409V25.1264C221.409 23.5521 220.539 22.8188 219.307 22.8188C217.752 22.8188 216.872 24.041 216.872 25.7228V31.4624H214.711ZM230.854 31.6384C228.038 31.6384 226.288 29.9077 226.288 26.9939V25.5957C226.288 22.6624 228.204 20.9512 230.727 20.9512C233.318 20.9512 235.147 22.7504 235.147 25.5957V26.8082H228.439V27.3166C228.439 28.8028 229.319 29.8979 230.844 29.8979C231.979 29.8979 232.761 29.3602 232.908 28.7148H235.029C234.902 29.9077 233.641 31.6384 230.854 31.6384ZM228.439 25.3904H233.025V25.2535C233.025 23.6988 232.116 22.6624 230.737 22.6624C229.358 22.6624 228.439 23.6988 228.439 25.2535V25.3904Z" fill="white"/>
<path d="M85.0081 68.4878H80.4907L89.6819 41.7943H94.649L103.821 68.4878H99.1273L96.761 61.0958H87.3939L85.0081 68.4878ZM92.185 46.4094H92.009L88.3912 57.6931H95.7637L92.185 46.4094ZM116.288 68.7811C113.609 68.7811 111.575 67.51 110.48 65.6131H110.323V75.3518H105.982V47.8175H110.206V50.8486H110.362C111.497 48.8735 113.609 47.5437 116.386 47.5437C121.02 47.5437 124.325 51.0441 124.325 57.2237V59.062C124.325 65.2024 121.059 68.7811 116.288 68.7811ZM115.291 65.2024C118.048 65.2024 119.925 62.9927 119.925 58.8273V57.3802C119.925 53.3713 118.165 51.0833 115.212 51.0833C112.181 51.0833 110.284 53.5473 110.284 57.3606V58.8273C110.284 62.7384 112.201 65.2024 115.291 65.2024ZM138.357 68.7811C135.678 68.7811 133.644 67.51 132.549 65.6131H132.392V75.3518H128.051V47.8175H132.275V50.8486H132.432C133.566 48.8735 135.678 47.5437 138.455 47.5437C143.089 47.5437 146.394 51.0441 146.394 57.2237V59.062C146.394 65.2024 143.128 68.7811 138.357 68.7811ZM137.36 65.2024C140.117 65.2024 141.994 62.9927 141.994 58.8273V57.3802C141.994 53.3713 140.234 51.0833 137.281 51.0833C134.25 51.0833 132.353 53.5473 132.353 57.3606V58.8273C132.353 62.7384 134.27 65.2024 137.36 65.2024ZM155.391 61.0762H159.732C159.928 63.3838 161.962 65.3589 165.736 65.3589C169.197 65.3589 171.25 63.7358 171.25 61.2131C171.25 59.1793 169.882 58.0842 167.026 57.3997L162.646 56.3046C159.204 55.5028 156.114 53.4495 156.114 49.1081C156.114 44.0041 160.573 41.2076 165.755 41.2076C170.938 41.2076 175.259 44.0041 175.357 48.9908H171.094C170.898 46.7223 169.158 44.845 165.697 44.845C162.646 44.845 160.573 46.2921 160.573 48.7757C160.573 50.5161 161.786 51.7677 164.269 52.3348L168.63 53.4104C172.639 54.3882 175.69 56.2851 175.69 60.822C175.69 66.0629 171.446 69.0158 165.403 69.0158C157.972 69.0158 155.489 64.6744 155.391 61.0762ZM180.98 47.8175V42.7917H185.243V47.8175H189.271V51.2984H185.243V62.3278C185.243 64.5767 186.084 65.2024 188.411 65.2024C188.783 65.2024 189.135 65.2024 189.389 65.1633V68.4878C189.037 68.5465 188.215 68.6247 187.335 68.6247C182.31 68.6247 180.921 66.8256 180.921 62.6798V51.2984H178.066V47.8175H180.98ZM200.996 47.4655C206.941 47.4655 210.167 51.6504 210.167 57.2824V58.9446C210.167 64.7722 206.96 68.8398 200.996 68.8398C195.031 68.8398 191.785 64.7722 191.785 58.9446V57.2824C191.785 51.6699 195.051 47.4655 200.996 47.4655ZM200.996 50.9464C197.769 50.9464 196.165 53.5864 196.165 57.3411V58.9251C196.165 62.6211 197.749 65.3393 200.996 65.3393C204.242 65.3393 205.806 62.6406 205.806 58.9251V57.3411C205.806 53.5668 204.222 50.9464 200.996 50.9464ZM213.834 68.4878V47.8175H218.176V50.5357H218.332C218.86 49.245 220.405 47.5241 223.28 47.5241C223.847 47.5241 224.336 47.5632 224.746 47.6415V51.4744C224.375 51.3766 223.612 51.3179 222.889 51.3179C219.408 51.3179 218.234 53.469 218.234 56.2459V68.4878H213.834ZM235.278 68.8398C229.743 68.8398 226.223 65.1829 226.223 59.062V56.9695C226.223 51.2006 229.665 47.4655 235.102 47.4655C240.616 47.4655 243.941 51.3375 243.941 57.1651V59.1402H230.506V59.6291C230.506 63.11 232.383 65.4176 235.336 65.4176C237.546 65.4176 239.052 64.3224 239.58 62.5429H243.706C243.08 65.8869 240.382 68.8398 235.278 68.8398ZM230.506 56.1091H239.697V56.0699C239.697 53.1366 237.879 50.829 235.121 50.829C232.325 50.829 230.506 53.1366 230.506 56.0699V56.1091Z" fill="white"/>
</svg>
